<svg height="512" viewBox="0 0 176 176" width="512" xmlns="http://www.w3.org/2000/svg"><g id="Layer_2" data-name="Layer 2"><g id="_7.After_Effect" data-name="7.After Effect"><g id="background"><path id="background-2" d="m0 0h144.46a31.54 31.54 0 0 1 31.54 31.54v144.46a0 0 0 0 1 0 0h-144.46a31.54 31.54 0 0 1 -31.54-31.54v-144.46a0 0 0 0 1 0 0z" fill="#1f0040" data-name="background"/><path id="shade" d="m144.46 8a23.57 23.57 0 0 1 23.54 23.54v136.46h-136.46a23.57 23.57 0 0 1 -23.54-23.54v-136.46zm0-8h-144.46v144.46a31.54 31.54 0 0 0 31.54 31.54h144.46v-144.46a31.54 31.54 0 0 0 -31.54-31.54z" fill="#d291ff"/></g><g id="icon" fill="#d291ff"><path d="m75.43 101.05h-20.88l-5.22 15.75q-.09.72-1 .72h-9.44q-.9 0-.63-.9l18.74-53.46a15.32 15.32 0 0 0 .81-5q0-.54.63-.54h13a.81.81 0 0 1 .72.45l20.84 58.64q.27.81-.54.81h-10.64a.92.92 0 0 1 -.9-.63zm-18.54-8.73h16.2q-.36-1.26-3.73-11.47t-4.46-14h-.09q-1.08 4.59-7.92 25.47z"/><path d="m127.45 97.72h-18.09a12 12 0 0 0 3.47 8.78q3.38 3.28 9.85 3.28a25.91 25.91 0 0 0 11.16-2.25q.54-.18.54.45v6.75a1.09 1.09 0 0 1 -.54 1.08 32.3 32.3 0 0 1 -13.59 2.61 27 27 0 0 1 -10.53-1.89 17 17 0 0 1 -7-5.13 22.46 22.46 0 0 1 -3.72-7.07 27 27 0 0 1 -1.22-8.23 24.62 24.62 0 0 1 5.72-16.52q5.72-6.69 15.61-6.7 9.36 0 14 5.58a19.68 19.68 0 0 1 4.68 13.05 33.84 33.84 0 0 1 -.36 5.13.77.77 0 0 1 -.72.72 78 78 0 0 1 -9.26.36zm-18.09-7h12.78a30.46 30.46 0 0 0 4.77-.18 6 6 0 0 0 .09-1.26 10.24 10.24 0 0 0 -1.93-6.12c-1.3-1.8-3.41-2.7-6.35-2.7a8.06 8.06 0 0 0 -6.61 2.93 13 13 0 0 0 -2.75 7.31z"/></g></g></g></svg>