<svg width="60" height="60" viewBox="0 0 60 60" fill="none" xmlns="http://www.w3.org/2000/svg">
<path fill-rule="evenodd" clip-rule="evenodd" d="M12.4622 6.10205C9.03864 6.10205 6.50542 9.09849 6.61881 12.3482C6.72763 15.4702 6.58627 19.5136 5.56831 22.811C4.54729 26.1182 2.82051 28.2131 0 28.482V31.5187C2.82051 31.7876 4.54729 33.8826 5.56831 37.1897C6.58627 40.4871 6.72763 44.5305 6.61881 47.6526C6.50542 50.9017 9.03864 53.8987 12.4627 53.8987H47.5424C50.9659 53.8987 53.4986 50.9022 53.3853 47.6526C53.2764 44.5305 53.4178 40.4871 54.4358 37.1897C55.4573 33.8826 57.1795 31.7876 60 31.5187V28.482C57.1795 28.2131 55.4573 26.1182 54.4358 22.811C53.4178 19.5141 53.2764 15.4702 53.3853 12.3482C53.4986 9.099 50.9659 6.10205 47.5424 6.10205H12.4617H12.4622ZM40.678 35.5239C40.678 39.9985 37.3403 42.7122 31.8015 42.7122H22.3729C22.1032 42.7122 21.8445 42.6051 21.6538 42.4144C21.4631 42.2236 21.3559 41.965 21.3559 41.6953V18.3054C21.3559 18.0357 21.4631 17.7771 21.6538 17.5863C21.8445 17.3956 22.1032 17.2885 22.3729 17.2885H31.7476C36.3661 17.2885 39.3971 19.7902 39.3971 23.6312C39.3971 26.3271 37.3581 28.7409 34.7603 29.1634V29.3043C38.2968 29.6922 40.678 32.141 40.678 35.5239ZM30.7734 20.5122H25.3973V28.1058H29.9253C33.4256 28.1058 35.3558 26.6963 35.3558 24.1768C35.3558 21.8159 33.6961 20.5122 30.7734 20.5122ZM25.3973 31.119V39.4875H30.9712C34.6154 39.4875 36.5461 38.0251 36.5461 35.2768C36.5461 32.528 34.5615 31.1185 30.7368 31.1185L25.3973 31.119Z" fill="url(#paint0_linear_8_21)"/>
<defs>
<linearGradient id="paint0_linear_8_21" x1="8.71156" y1="6.10205" x2="51.0781" y2="53.8987" gradientUnits="userSpaceOnUse">
<stop stop-color="#8F13FE"/>
<stop offset="1" stop-color="#6A10F3"/>
</linearGradient>
</defs>
</svg>
