<svg width="60" height="60" viewBox="0 0 60 60" fill="none" xmlns="http://www.w3.org/2000/svg">
<g clip-path="url(#clip0_8_70)">
<path d="M0 2.00911V4.65783C1.10759 4.65783 2.00883 5.55905 2.00883 6.66626C2.00883 7.77416 1.10759 8.67537 0 8.67537V11.3241C1.10759 11.3241 2.00883 12.2253 2.00883 13.3325C2.00883 14.4404 1.10759 15.3416 0 15.3416V17.9904C1.10759 17.9904 2.00883 18.8916 2.00883 20.0002C2.00883 21.1087 1.10759 22.01 0 22.01V24.6587C1.10759 24.6587 2.00883 25.5592 2.00883 26.6671C2.00883 27.775 1.10759 28.6762 0 28.6762V31.3249C1.10759 31.3249 2.00883 32.2255 2.00883 33.3334C2.00883 34.4413 1.10759 35.3425 0 35.3425V37.9912C1.10759 37.9912 2.00883 38.8917 2.00883 39.9996C2.00883 41.1075 1.10759 42.0087 0 42.0087V44.6575C1.10759 44.6575 2.00883 45.558 2.00883 46.6659C2.00883 47.7738 1.10759 48.675 0 48.675V51.3237C1.10759 51.3237 2.00883 52.2243 2.00883 53.3321C2.00883 54.44 1.10759 55.3413 0 55.3413V57.9914C0.52873 57.9914 1.04648 58.2052 1.42071 58.5795C1.79425 58.953 2.00883 59.4707 2.00883 59.9998H4.65764C4.65764 58.8919 5.55889 57.9914 6.66648 57.9914C7.77406 57.9914 8.67531 58.8919 8.67531 59.9998H11.3241C11.3241 58.8919 12.2254 57.9914 13.333 57.9914C14.4405 57.9914 15.3418 58.8919 15.3418 59.9998H17.9906C17.9906 58.8919 18.8918 57.9914 19.9994 57.9914C21.107 57.9914 22.0083 58.8919 22.0083 59.9998H24.6571C24.6571 58.8919 25.5583 57.9914 26.6659 57.9914C27.7735 57.9914 28.6747 58.8919 28.6747 59.9998H31.3235C31.3235 58.8919 32.2248 57.9914 33.3324 57.9914C34.44 57.9914 35.3412 58.8919 35.3412 59.9998H37.99C37.99 58.8919 38.8913 57.9914 39.9989 57.9914C41.1064 57.9914 42.0077 58.8919 42.0077 59.9998H44.6565C44.6565 58.8919 45.5577 57.9914 46.6653 57.9914C47.7729 57.9914 48.6742 58.8919 48.6742 59.9998H51.323C51.323 58.8919 52.2242 57.9914 53.3318 57.9914C54.4394 57.9914 55.3406 58.8919 55.3406 59.9998H57.9908C57.9908 59.4707 58.2054 58.953 58.5796 58.5795C58.9532 58.2052 59.4709 57.9914 60 57.9914V55.3426C58.8921 55.3426 57.9908 54.4414 57.9908 53.3335C57.9908 52.2256 58.8921 51.3251 60 51.3251V48.6764C58.8921 48.6764 57.9908 47.7752 57.9908 46.6673C57.9908 45.5594 58.8921 44.6588 60 44.6588V42.0101C58.8921 42.0101 57.9908 41.1089 57.9908 40.001C57.9908 38.8931 58.8921 37.9926 60 37.9926V35.3439C58.8921 35.3439 57.9908 34.4426 57.9908 33.3347C57.9908 32.2268 58.8921 31.3263 60 31.3263V28.6776C58.8921 28.6776 57.9908 27.7764 57.9908 26.6685C57.9908 25.5606 58.8921 24.6601 60 24.6601V22.0113C58.8921 22.0113 57.9908 21.1101 57.9908 20.0015C57.9908 18.8929 58.8921 17.9917 60 17.9917V15.343C58.8921 15.343 57.9908 14.4418 57.9908 13.3339C57.9908 12.2267 58.8921 11.3255 60 11.3255V8.67675C58.8921 8.67675 57.9908 7.77553 57.9908 6.66763C57.9908 5.56042 58.8921 4.65921 60 4.65921V2.00911C59.4709 2.00911 58.9532 1.79454 58.5796 1.421C58.2054 1.04678 57.9908 0.529057 57.9908 0H55.342C55.342 1.1079 54.4408 2.00911 53.3332 2.00911C52.2256 2.00911 51.3243 1.1079 51.3243 0H48.6755C48.6755 1.1079 47.7743 2.00911 46.6667 2.00911C45.5591 2.00911 44.6579 1.1079 44.6579 0H42.0091C42.0091 1.1079 41.1078 2.00911 40.0002 2.00911C38.8926 2.00911 37.9914 1.1079 37.9914 0H35.3426C35.3426 1.1079 34.4413 2.00911 33.3338 2.00911C32.2262 2.00911 31.3249 1.1079 31.3249 0H28.6761C28.6761 1.1079 27.7749 2.00911 26.6673 2.00911C25.5597 2.00911 24.6584 1.1079 24.6584 0H22.0096C22.0096 1.1079 21.1084 2.00911 20.0008 2.00911C18.8932 2.00911 17.992 1.1079 17.992 0H15.3432C15.3432 1.1079 14.4419 2.00911 13.3343 2.00911C12.2267 2.00911 11.3255 1.1079 11.3255 0H8.67668C8.67668 1.1079 7.77544 2.00911 6.66785 2.00911C5.56026 2.00911 4.65901 1.1079 4.65901 0H2.00883C2.00883 0.529057 1.79425 1.04678 1.42071 1.421C1.04648 1.79454 0.52873 2.00911 0 2.00911Z" fill="url(#paint0_linear_8_70)"/>
<path d="M51.1125 24.0077H21.1722L22.7347 16.6973H40.9828L42.6569 8.8291H16.4284L8.16919 47.7802H16.0936L19.7202 30.7598H38.7274L22.2115 47.1104L25.1133 52.2441C26.4523 51.3515 28.6287 51.2395 30.1356 51.2395C32.8146 51.2395 35.4373 52.1329 38.1709 52.1329C40.6776 52.1329 43.2436 51.9653 47.4295 49.9562L48.8921 43.0925C46.0456 44.2639 41.8339 45.3804 38.1709 45.3804C36.6651 45.3804 35.2698 45.0457 33.8188 44.8225L49.8287 29.2536L51.1125 24.0077Z" fill="white"/>
</g>
<defs>
<linearGradient id="paint0_linear_8_70" x1="29.9987" y1="7.28591" x2="29.9987" y2="53.6363" gradientUnits="userSpaceOnUse">
<stop stop-color="#BF0000"/>
<stop offset="1" stop-color="#8F0000"/>
</linearGradient>
<clipPath id="clip0_8_70">
<rect width="60" height="59.9998" fill="white"/>
</clipPath>
</defs>
</svg>
