<svg width="60" height="60" viewBox="0 0 60 60" fill="none" xmlns="http://www.w3.org/2000/svg">
<g clip-path="url(#clip0_8_2)">
<rect x="12.1105" y="8.91992" width="35.7446" height="41.4146" fill="white"/>
<path d="M3.77792 1.98624L7.67204 51.8045C7.70064 52.1702 7.83775 52.5191 8.06582 52.8064C8.29388 53.0937 8.60252 53.3064 8.9522 53.4173L29.4431 59.9139C29.8055 60.0287 30.1945 60.0287 30.5569 59.9139L51.0478 53.4173C51.3975 53.3064 51.7062 53.0937 51.9342 52.8064C52.1623 52.5191 52.2994 52.1702 52.328 51.8045L56.2221 1.98624C56.3059 0.915174 55.4594 0 54.3852 0H5.61504C4.54079 0 3.69431 0.915174 3.77792 1.98624ZM46.2359 17.4432H20.8572L21.6231 24.506H45.684L44.11 44.6411L30.0001 49.1145L15.8902 44.6411L15.0679 34.1217H22.4739V39.2816L30.198 41.3546L37.876 39.2816L38.4716 31.0581H14.8284L13.2587 10.9759H46.7413L46.2359 17.4432Z" fill="#FC490B"/>
</g>
<defs>
<clipPath id="clip0_8_2">
<rect width="60" height="60" fill="white"/>
</clipPath>
</defs>
</svg>
