<svg width="60" height="60" viewBox="0 0 60 60" fill="none" xmlns="http://www.w3.org/2000/svg">
<g clip-path="url(#clip0_8_50)">
<path d="M10.6873 0.750441H49.4998C50.8911 0.751306 52.2684 1.02847 53.5517 1.56586C54.835 2.10324 55.9989 2.89014 56.9757 3.88089C57.9525 4.87165 58.7228 6.04653 59.2419 7.33736C59.761 8.62819 60.0186 10.0093 59.9998 11.4004V48.6004C59.9978 50.0016 59.7197 51.3887 59.1815 52.6824C58.6432 53.976 57.8553 55.151 56.8628 56.14C55.8703 57.129 54.6926 57.9128 53.397 58.4465C52.1015 58.9802 50.7134 59.2534 49.3123 59.2504H10.6873C9.28609 59.2534 7.89806 58.9802 6.6025 58.4465C5.30695 57.9128 4.12926 57.129 3.13673 56.14C2.14421 55.151 1.3563 53.976 0.818048 52.6824C0.279794 51.3887 0.00173743 50.0016 -0.000230168 48.6004V11.4004C-0.0139465 9.99488 0.253406 8.60075 0.786116 7.29998C1.31883 5.99921 2.10615 4.81803 3.10182 3.82585C4.0975 2.83367 5.28144 2.05051 6.58407 1.52237C7.88671 0.994234 9.28177 0.731784 10.6873 0.750441Z" fill="#330000"/>
<path d="M29.0623 35.7261H19.6873L17.8123 41.5386C17.8123 41.7261 17.6248 41.9136 17.2498 41.9136H12.7498C12.6525 41.9069 12.5609 41.8653 12.492 41.7963C12.4231 41.7274 12.3814 41.6358 12.3748 41.5386L20.4373 18.2886C20.6248 18.1011 20.6248 17.9136 20.6248 17.5386C20.7794 16.9902 20.8428 16.4201 20.8123 15.8511L20.9998 15.6636H27.3748C27.5623 15.6636 27.7498 15.6636 27.7498 15.8511L36.9373 41.5386C36.9373 41.7261 36.9373 41.9136 36.7498 41.9136H31.4998C31.4025 41.9069 31.3109 41.8653 31.242 41.7963C31.1731 41.7274 31.1314 41.6358 31.1248 41.5386L29.0623 35.7261ZM21.1873 30.6636H27.5623C27.3748 30.1011 27.1873 29.5386 26.9998 28.7886C26.8335 28.0734 26.5817 27.381 26.2498 26.7261C26.0623 25.9761 25.6873 25.2261 25.4998 24.4761C25.335 23.7003 25.0834 22.9456 24.7498 22.2261C24.502 21.6208 24.3136 20.9928 24.1873 20.3511C23.9874 21.4435 23.6731 22.5119 23.2498 23.5386C22.8748 24.6636 22.4998 25.9761 22.1248 27.2886C21.8998 28.4361 21.5863 29.5644 21.1873 30.6636Z" fill="#FF9A00"/>
<path d="M42.3748 19.9818C41.5359 19.9526 40.7362 19.6194 40.1248 19.0443C39.6023 18.4144 39.3347 17.6116 39.3748 16.7943C39.4039 15.9554 39.7371 15.1557 40.3123 14.5443C40.6068 14.2471 40.9573 14.0112 41.3435 13.8503C41.7297 13.6893 42.1439 13.6064 42.5623 13.6064C42.9807 13.6064 43.3949 13.6893 43.7811 13.8503C44.1673 14.0112 44.5177 14.2471 44.8123 14.5443C45.1083 14.8318 45.331 15.1863 45.4615 15.5779C45.592 15.9694 45.6266 16.3866 45.5623 16.7943C45.6088 17.218 45.5472 17.6465 45.3833 18.04C45.2193 18.4334 44.9584 18.7789 44.6248 19.0443C44.3324 19.3442 43.9823 19.5819 43.5956 19.743C43.2089 19.9041 42.7937 19.9854 42.3748 19.9818ZM39.7498 41.5443V22.4193C39.7564 22.322 39.7981 22.2304 39.867 22.1615C39.936 22.0926 40.0275 22.0509 40.1248 22.0443H44.9998C45.097 22.0509 45.1886 22.0926 45.2575 22.1615C45.3265 22.2304 45.3681 22.322 45.3748 22.4193V41.7318C45.3681 41.829 45.3265 41.9206 45.2575 41.9895C45.1886 42.0585 45.097 42.1001 44.9998 42.1068H40.1248C39.7498 42.1068 39.7498 41.9193 39.7498 41.5443Z" fill="#FF9A00"/>
</g>
<defs>
<clipPath id="clip0_8_50">
<rect width="60" height="60" fill="white"/>
</clipPath>
</defs>
</svg>
