<svg width="60" height="60" viewBox="0 0 60 60" fill="none" xmlns="http://www.w3.org/2000/svg">
<g clip-path="url(#clip0_8_16)">
<path d="M3.80907 14.6716C-1.50293 22.3076 -0.840931 32.2396 3.21507 40.3536C3.31107 40.5456 3.41307 40.7356 3.51307 40.9276C3.57507 41.0496 3.63507 41.1736 3.70107 41.2956L3.82107 41.5056C3.88907 41.6336 3.96107 41.7556 4.03307 41.8836C4.15907 42.1056 4.28707 42.3256 4.41907 42.5476L4.63907 42.9116C4.78507 43.1456 4.93307 43.3796 5.09107 43.6156C5.15307 43.7136 5.21707 43.8156 5.28107 43.9116C5.49307 44.2236 5.70907 44.5396 5.93107 44.8496C5.93907 44.8576 5.94307 44.8696 5.95107 44.8736L6.06107 45.0216C6.3229 45.3878 6.595 45.7467 6.87707 46.0976C7.05707 46.3236 7.24107 46.5476 7.42707 46.7736C7.49507 46.8556 7.56307 46.9416 7.63507 47.0236C7.88507 47.3156 8.14107 47.6096 8.40107 47.8956L8.41707 47.9116C8.42907 47.9276 8.43707 47.9316 8.44707 47.9476C8.69907 48.2256 8.96107 48.4936 9.22307 48.7636C9.30507 48.8496 9.38707 48.9316 9.47307 49.0136C9.67707 49.2216 9.88307 49.4236 10.0931 49.6236L10.3471 49.8656C10.6271 50.1276 10.9071 50.3856 11.1971 50.6396C11.2011 50.6436 11.2051 50.6476 11.2111 50.6476C11.2591 50.6936 11.3111 50.7336 11.3571 50.7756C11.6111 50.9936 11.8691 51.2136 12.1311 51.4276L12.4511 51.6816C12.7771 51.9403 13.1058 52.1957 13.4371 52.4476C13.6751 52.6236 13.9151 52.7956 14.1571 52.9636C14.2471 53.0296 14.3331 53.0916 14.4211 53.1516C14.4471 53.1676 14.4691 53.1876 14.4931 53.2016C14.7231 53.3616 14.9591 53.5136 15.1971 53.6656L15.4971 53.8696C15.8611 54.0956 16.2251 54.3236 16.5951 54.5416L16.8991 54.7136C17.1731 54.8696 17.4451 55.0216 17.7231 55.1736C17.8711 55.2556 18.0271 55.3296 18.1791 55.4076C18.3771 55.5096 18.5691 55.6156 18.7691 55.7116C18.8131 55.7356 18.8611 55.7576 18.9051 55.7776L19.1451 55.8956C19.4531 56.0436 19.7671 56.1876 20.0811 56.3296C20.1471 56.3616 20.2111 56.3876 20.2791 56.4156C20.6391 56.5756 21.0011 56.7276 21.3691 56.8696C21.4571 56.9096 21.5451 56.9396 21.6351 56.9756C21.9751 57.1076 22.3191 57.2376 22.6631 57.3576C22.7051 57.3736 22.7491 57.3856 22.7911 57.3996C23.1691 57.5316 23.5531 57.6576 23.9391 57.7756C24.0311 57.8036 24.1231 57.8336 24.2171 57.8576C24.6071 57.9796 24.9951 58.1196 25.4011 58.1936C51.0931 62.8776 58.5511 42.7556 58.5511 42.7556C52.2871 50.9196 41.1611 53.0756 30.6191 50.6776C30.2211 50.5876 29.8331 50.4636 29.4431 50.3456C28.9644 50.2058 28.4895 50.0531 28.0191 49.8876C27.9691 49.8676 27.9151 49.8516 27.8631 49.8336C27.5271 49.7116 27.1951 49.5916 26.8631 49.4616C26.7711 49.4216 26.6771 49.3876 26.5851 49.3516C26.2222 49.2086 25.8621 49.0586 25.5051 48.9016L25.2911 48.8076C24.8979 48.6276 24.5065 48.4436 24.1171 48.2556C23.8818 48.1368 23.6471 48.0168 23.4131 47.8956C23.2571 47.8136 23.0991 47.7356 22.9451 47.6496C22.6603 47.4985 22.3789 47.3412 22.1011 47.1776C22.0051 47.1267 21.9098 47.0747 21.8151 47.0216C21.0744 46.5821 20.3486 46.1178 19.6391 45.6296C19.5531 45.5716 19.4711 45.5076 19.3871 45.4536C19.1394 45.2772 18.8934 45.0985 18.6491 44.9176C18.5383 44.837 18.4296 44.7536 18.3231 44.6676C18.0991 44.4996 17.8751 44.3276 17.6551 44.1476L17.3591 43.9096C17.0467 43.6563 16.7393 43.3969 16.4371 43.1316C16.0552 42.799 15.6811 42.4575 15.3151 42.1076C15.1031 41.9036 14.8931 41.7016 14.6871 41.4896L14.4411 41.2476C14.1811 40.9776 13.9231 40.7076 13.6711 40.4316L13.6331 40.3916C13.3677 40.0996 13.1077 39.8029 12.8531 39.5016L12.6471 39.2596C12.4555 39.031 12.2681 38.799 12.0851 38.5636C12.0154 38.4797 11.9468 38.395 11.8791 38.3096C11.6592 38.0245 11.4432 37.7364 11.2311 37.4456C5.37907 29.4636 3.27507 18.4556 7.95507 9.41357" fill="#78CFF5"/>
<path d="M20.299 8.23762C16.457 13.7696 16.667 21.1676 19.663 27.0156C20.1651 27.9956 20.7291 28.9456 21.3631 29.8516C21.9371 30.6756 22.5771 31.6596 23.3391 32.3176C23.6171 32.6216 23.905 32.9236 24.203 33.2116C24.5616 33.5696 24.9304 33.917 25.3091 34.2536C25.3231 34.2656 25.3331 34.2776 25.3471 34.2856L25.3551 34.2936C25.6871 34.5856 26.0331 34.8676 26.3831 35.1456C26.4611 35.2036 26.5391 35.2676 26.6171 35.3296C26.9691 35.5996 27.3251 35.8616 27.6911 36.1156L27.7231 36.1396C27.8871 36.2536 28.0511 36.3536 28.2151 36.4636C28.2931 36.5136 28.3671 36.5696 28.4471 36.6156C28.7091 36.7836 28.9751 36.9476 29.2431 37.1036L29.3571 37.1696C29.5891 37.3016 29.8251 37.4356 30.0631 37.5636C30.1451 37.6096 30.2311 37.6496 30.3131 37.6916L30.8071 37.9496C30.8331 37.9616 30.8551 37.9736 30.8811 37.9816C31.2191 38.1496 31.5611 38.3096 31.9111 38.4616L32.1371 38.5556C32.5334 38.7255 32.9349 38.8829 33.3411 39.0276C33.7122 39.1675 34.0878 39.2956 34.4671 39.4116C34.8371 39.5256 35.2011 39.6736 35.5871 39.7356C55.4231 43.0216 60.0011 27.7536 60.0011 27.7536C55.8731 33.6936 47.8791 36.5336 39.3511 34.3176C38.9737 34.2169 38.5983 34.1089 38.2251 33.9936L37.8891 33.8836C37.6242 33.7986 37.3615 33.7072 37.1011 33.6096L36.7471 33.4816C36.462 33.3728 36.1793 33.2581 35.8991 33.1376L35.6731 33.0436C35.3236 32.8912 34.9782 32.7298 34.6371 32.5596C34.4611 32.4776 34.2891 32.3876 34.1171 32.2976L33.819 32.1416C33.599 32.0236 33.3791 31.8996 33.1631 31.7756C33.1111 31.7436 33.0571 31.7176 33.0051 31.6876C32.7371 31.5316 32.4731 31.3676 32.2131 31.2036C32.1311 31.1496 32.0531 31.0936 31.9711 31.0436C31.7991 30.9296 31.6271 30.8176 31.4571 30.6996C31.0935 30.4475 30.7361 30.1868 30.3851 29.9176L30.1431 29.7256C26.4091 26.7756 23.4491 22.7496 22.0411 18.1796C20.5691 13.4416 20.885 8.12562 23.439 3.80762" fill="#78CFF5"/>
<path d="M34.1651 3.43361C31.9011 6.76561 31.6791 10.9056 33.2511 14.5856C34.9071 18.4956 38.3031 21.5576 42.2671 23.0116C42.4311 23.0736 42.5951 23.1296 42.7591 23.1836L42.9771 23.2536C43.2091 23.3236 43.4411 23.4096 43.6851 23.4576C54.6371 25.5756 57.6051 17.8356 58.3971 16.6956C55.7911 20.4456 51.4231 21.3436 46.0551 20.0396C45.6167 19.9287 45.1841 19.7959 44.7591 19.6416C43.2358 19.0988 41.8041 18.3273 40.5131 17.3536C35.7131 13.7096 32.7271 6.75961 35.8611 1.09961" fill="#78CFF5"/>
</g>
<defs>
<clipPath id="clip0_8_16">
<rect width="60" height="60" fill="white"/>
</clipPath>
</defs>
</svg>
