<svg width="60" height="60" viewBox="0 0 60 60" fill="none" xmlns="http://www.w3.org/2000/svg">
<g clip-path="url(#clip0_8_12)">
<path d="M0 0H60V60H0V0Z" fill="#FFDF00"/>
<path d="M40.3048 46.8753C41.5134 48.8486 43.0858 50.2991 45.8668 50.2991C48.2029 50.2991 49.6953 49.1314 49.6953 47.5181C49.6953 45.5847 48.162 44.9 45.5906 43.7752L44.181 43.1704C40.1124 41.4371 37.4096 39.2656 37.4096 34.6752C37.4096 30.4466 40.6315 27.2275 45.6667 27.2275C49.2515 27.2275 51.8287 28.4751 53.6858 31.7418L49.2953 34.5609C48.3286 32.8276 47.2858 32.1447 45.6667 32.1447C44.0153 32.1447 42.9686 33.1924 42.9686 34.5609C42.9686 36.2524 44.0163 36.9371 46.4352 37.9848L47.8448 38.5885C52.6353 40.6428 55.34 42.7371 55.34 47.4457C55.34 52.5219 51.3523 55.3029 45.9971 55.3029C40.7609 55.3029 37.3781 52.8076 35.7228 49.5371L40.3048 46.8753ZM20.3876 47.3639C21.2733 48.9353 22.0791 50.2639 24.0162 50.2639C25.8686 50.2639 27.0372 49.5391 27.0372 46.7211V27.5496H32.6753V46.7971C32.6753 52.6352 29.2525 55.2924 24.2562 55.2924C19.7419 55.2924 17.1277 52.9562 15.7981 50.1424L20.3876 47.3639Z" fill="black"/>
</g>
<defs>
<clipPath id="clip0_8_12">
<rect width="60" height="60" fill="white"/>
</clipPath>
</defs>
</svg>
