<svg width="60" height="60" viewBox="0 0 60 60" fill="none" xmlns="http://www.w3.org/2000/svg">
<g clip-path="url(#clip0_8_55)">
<path fill-rule="evenodd" clip-rule="evenodd" d="M59.1087 13.5736C59.1303 13.6536 59.1414 13.736 59.1416 13.8189V26.6977C59.1416 26.863 59.098 27.0254 59.0151 27.1684C58.9323 27.3115 58.8131 27.4301 58.6697 27.5123L47.8603 33.7358V46.0712C47.8603 46.4069 47.6819 46.7167 47.3908 46.8858L24.827 59.8749C24.7753 59.9043 24.719 59.9231 24.6626 59.943C24.6415 59.9501 24.6216 59.963 24.5993 59.9688C24.4415 60.0104 24.2757 60.0104 24.118 59.9688C24.0922 59.9618 24.0687 59.9477 24.0441 59.9383C23.9924 59.9195 23.9384 59.9031 23.8891 59.8749L1.33002 46.8858C1.18671 46.8034 1.06763 46.6848 0.984788 46.5418C0.901947 46.3988 0.858268 46.2364 0.858154 46.0712L0.858154 7.43464C0.858154 7.35013 0.869892 7.26796 0.89102 7.18815C0.898063 7.16115 0.914496 7.1365 0.923887 7.1095C0.941493 7.0602 0.957927 7.00973 0.98375 6.96395C1.00136 6.93343 1.02718 6.90878 1.04831 6.88061C1.07531 6.84305 1.09996 6.80432 1.13165 6.77145C1.15864 6.74445 1.19386 6.7245 1.22438 6.70102C1.25842 6.67285 1.28894 6.64233 1.32767 6.62003L12.609 0.125445C12.7518 0.0432563 12.9137 0 13.0785 0C13.2433 0 13.4052 0.0432563 13.548 0.125445L24.8281 6.62003H24.8305C24.8681 6.64351 24.8997 6.67285 24.9338 6.69985C24.9643 6.72333 24.9983 6.74445 25.0253 6.77028C25.0582 6.80432 25.0817 6.84305 25.1099 6.88061C25.1298 6.90878 25.1568 6.93343 25.1732 6.96395C25.2002 7.0109 25.2155 7.0602 25.2343 7.1095C25.2437 7.1365 25.2601 7.16115 25.2671 7.18932C25.2888 7.26931 25.2998 7.35179 25.3 7.43464V31.5666L34.6997 26.1543V13.8177C34.6997 13.7356 34.7115 13.6522 34.7326 13.5736C34.7408 13.5454 34.7561 13.5208 34.7655 13.4938C34.7842 13.4445 34.8007 13.394 34.8265 13.3482C34.8441 13.3177 34.8699 13.293 34.8899 13.2649C34.9181 13.2273 34.9415 13.1886 34.9744 13.1557C35.0014 13.1287 35.0354 13.1087 35.066 13.0853C35.1012 13.0571 35.1317 13.0266 35.1692 13.0043L46.4517 6.5097C46.5945 6.42739 46.7564 6.38407 46.9212 6.38407C47.0861 6.38407 47.248 6.42739 47.3908 6.5097L58.6709 13.0043C58.7108 13.0278 58.7413 13.0571 58.7765 13.0841C58.8059 13.1076 58.8399 13.1287 58.8669 13.1545C58.8998 13.1886 58.9233 13.2273 58.9514 13.2649C58.9726 13.293 58.9984 13.3177 59.0148 13.3482C59.0418 13.394 59.0571 13.4445 59.0759 13.4938C59.0864 13.5208 59.1017 13.5454 59.1087 13.5736ZM57.2612 26.1543V15.4446L53.3137 17.7171L47.8603 20.8569V31.5666L57.2623 26.1543H57.2612ZM45.981 45.5277V34.811L40.6168 37.8746L25.2988 46.617V57.4346L45.981 45.5277ZM2.73857 9.06034V45.5277L23.4184 57.4335V46.6181L12.6148 40.5039L12.6113 40.5015L12.6066 40.4992C12.5702 40.478 12.5397 40.4475 12.5057 40.4217C12.4763 40.3982 12.4423 40.3794 12.4165 40.3536L12.4141 40.3501C12.3836 40.3208 12.3625 40.2844 12.3367 40.2515C12.3132 40.2198 12.285 40.1928 12.2662 40.1599L12.2651 40.1564C12.2439 40.1212 12.231 40.079 12.2158 40.039C12.2005 40.0038 12.1805 39.971 12.1712 39.9334C12.1594 39.8888 12.1571 39.8407 12.1524 39.7949C12.1477 39.7597 12.1383 39.7245 12.1383 39.6893V39.6869V14.4727L6.68603 11.3316L2.73857 9.06034ZM13.0797 2.02464L3.68112 7.43464L13.0773 12.8446L22.4747 7.43347L13.0773 2.02464H13.0797ZM17.9673 35.7876L23.4196 32.6489V9.06034L19.4721 11.3328L14.0187 14.4727V38.0612L17.9673 35.7876ZM46.9212 8.40889L37.5239 13.8189L46.9212 19.2289L56.3174 13.8177L46.9212 8.40889ZM45.981 20.8569L40.5276 17.7171L36.5801 15.4446V26.1543L42.0324 29.293L45.981 31.5666V20.8569ZM24.3575 44.9913L38.1413 37.1222L45.0314 33.19L35.6411 27.7835L24.8293 34.0081L14.9753 39.681L24.3575 44.9913Z" fill="#FF2D20"/>
</g>
<defs>
<clipPath id="clip0_8_55">
<rect width="60" height="60" fill="white"/>
</clipPath>
</defs>
</svg>
