<svg width="60" height="60" viewBox="0 0 60 60" fill="none" xmlns="http://www.w3.org/2000/svg">
<g clip-path="url(#clip0_8_33)">
<path d="M14.4248 46.7925H12.1097C12.0283 42.8744 11.8026 39.1902 11.4337 35.739H11.4133L7.88847 46.7925H6.12576L2.62224 35.739H2.6016C2.34164 39.0534 2.1781 42.7377 2.10989 46.7925H-0.000976562C0.135432 41.8612 0.47681 37.2385 1.02316 32.9234H3.89259L7.23264 43.114H7.25313L10.6137 32.9234H13.3592C13.9604 37.9771 14.3154 42.6012 14.4245 46.7925" fill="#00758F"/>
<path d="M24.4673 36.56C23.5245 41.689 22.281 45.4162 20.7375 47.7413C19.5348 49.5329 18.2173 50.4287 16.7827 50.4287C16.4003 50.4287 15.9287 50.3132 15.369 50.0837V48.8473C15.6424 48.8874 15.9632 48.9089 16.3322 48.9089C17.0015 48.9089 17.5408 48.7234 17.9512 48.3532C18.4426 47.9022 18.6886 47.3952 18.6886 46.8333C18.6886 46.4496 18.4967 45.6621 18.1148 44.471L15.5741 36.56H17.8484L19.672 42.4767C20.0816 43.82 20.2525 44.7578 20.1841 45.2923C21.1815 42.6213 21.8782 39.7104 22.2746 36.56H24.4672" fill="#00758F"/>
<path d="M34.6086 42.948C34.6086 44.1242 34.1776 45.0898 33.3184 45.8453C32.4585 46.5975 31.3034 46.9746 29.8568 46.9746C28.5038 46.9746 27.1925 46.5406 25.9224 45.6796L26.5166 44.4883C27.6096 45.0361 28.5988 45.3097 29.4868 45.3097C30.3199 45.3097 30.972 45.1238 31.4437 44.7565C31.9143 44.3866 32.1964 43.8707 32.1964 43.2163C32.1964 42.3928 31.6237 41.6889 30.5727 41.0983C29.6025 40.5645 27.6635 39.45 27.6635 39.45C26.613 38.6816 26.0863 37.8571 26.0863 36.4987C26.0863 35.3752 26.4791 34.4671 27.2636 33.7761C28.0499 33.0838 29.0644 32.7377 30.3067 32.7377C31.5908 32.7377 32.7585 33.0813 33.8101 33.766L33.2759 34.9563C32.3761 34.5737 31.4887 34.3817 30.6138 34.3817C29.9039 34.3817 29.3569 34.5526 28.9755 34.8964C28.592 35.2372 28.3549 35.6758 28.3549 36.2104C28.3549 37.0318 28.9401 37.7442 30.0207 38.3462C31.003 38.8803 32.9895 40.0164 32.9895 40.0164C34.0701 40.7834 34.6086 41.6011 34.6086 42.948Z" fill="#F29111"/>
<path fill-rule="evenodd" clip-rule="evenodd" d="M38.7472 44.0178C38.187 43.1138 37.9063 41.663 37.9063 39.6626C37.9063 36.1703 38.9654 34.423 41.0826 34.423C42.1896 34.423 43.002 34.8409 43.5215 35.6759C44.0811 36.5804 44.3618 38.0185 44.3618 39.991C44.3618 43.5113 43.3026 45.2721 41.1854 45.2721C40.0788 45.2721 39.2661 44.8546 38.7472 44.018M46.9846 47.1268L44.4421 45.8697C44.6685 45.6836 44.8835 45.4828 45.0781 45.2503C46.1576 43.9778 46.6978 42.0945 46.6978 39.6011C46.6978 35.0128 44.9013 32.7174 41.3086 32.7174C39.5464 32.7174 38.173 33.2992 37.1896 34.4645C36.1098 35.7385 35.5706 37.6147 35.5706 40.094C35.5706 42.5319 36.0483 44.3203 37.0046 45.4564C37.8759 46.4833 39.1936 46.9974 40.9576 46.9974C41.6157 46.9974 42.2196 46.9162 42.7684 46.7537L46.0794 48.6855L46.9821 47.1267" fill="#F29111"/>
<path d="M55.2842 46.7925H48.7069V32.9234H50.9202V45.0864H55.2842V46.7924" fill="#F29111"/>
<path d="M56.8625 46.791H57.2292V45.3799H57.7092V45.0917H56.364V45.3799H56.8625V46.791ZM59.6532 46.791H59.9988V45.0917H59.4789L59.0558 46.25L58.5951 45.0917H58.0941V46.791H58.4212V45.4977H58.4398L58.9222 46.791H59.1715L59.6532 45.4977V46.791Z" fill="#F29111"/>
<path fill-rule="evenodd" clip-rule="evenodd" d="M58.0623 28.2779C56.7246 28.2443 55.6887 28.3782 54.8199 28.7471C54.5692 28.8476 54.1686 28.8476 54.1343 29.166C54.2689 29.2998 54.285 29.5175 54.4028 29.7026C54.6028 30.0378 54.9531 30.4895 55.2713 30.7247C55.6223 30.993 55.9733 31.2601 56.3415 31.4947C56.9928 31.8986 57.7284 32.1322 58.3626 32.5345C58.7315 32.7688 59.0978 33.0702 59.4667 33.3222C59.6499 33.4562 59.7659 33.6744 60.0009 33.7573V33.7066C59.8831 33.5562 59.8502 33.3383 59.7338 33.1698C59.5671 33.0035 59.3996 32.8517 59.2321 32.6849C58.7472 32.0315 58.1448 31.4622 57.4945 30.993C56.9592 30.6233 55.7887 30.1205 55.5723 29.5024C55.5723 29.5024 55.5548 29.4846 55.5384 29.4681C55.9062 29.4341 56.3415 29.2998 56.6921 29.1982C57.2595 29.0478 57.7777 29.0818 58.3626 28.9315C58.6304 28.8639 58.8979 28.7796 59.1664 28.6972V28.5453C58.8639 28.2443 58.6475 27.8415 58.3301 27.5569C57.4784 26.8199 56.5414 26.0998 55.5723 25.4956C55.0534 25.1604 54.385 24.9436 53.8333 24.658C53.6336 24.5573 53.2998 24.5077 53.1823 24.3392C52.8812 23.9706 52.7134 23.4853 52.4967 23.0489C52.0124 22.1283 51.5436 21.1064 51.1265 20.1329C50.8258 19.4799 50.6419 18.8268 50.2741 18.2231C48.5519 15.3738 46.6807 13.6488 43.8062 11.956C43.1877 11.6036 42.4524 11.4529 41.6675 11.2685C41.249 11.251 40.8316 11.2184 40.4138 11.2019C40.146 11.0841 39.8782 10.7655 39.6446 10.6147C38.6916 10.0118 36.2358 8.70494 35.5334 10.4307C35.0821 11.5206 36.2019 12.5926 36.5865 13.1457C36.8704 13.5306 37.2386 13.9671 37.4382 14.4021C37.5553 14.6871 37.5889 14.9893 37.7063 15.2904C37.9734 16.0276 38.2238 16.849 38.5755 17.5364C38.7587 17.8884 38.959 18.2575 39.1929 18.5744C39.3279 18.7598 39.5611 18.8425 39.6114 19.1451C39.3782 19.4799 39.36 19.9825 39.2265 20.4018C38.6251 22.2955 38.8587 24.6414 39.7114 26.032C39.9782 26.4509 40.6141 27.3729 41.4665 27.0201C42.2185 26.719 42.0514 25.7638 42.2685 24.9264C42.3185 24.7239 42.2849 24.5911 42.3849 24.4572V24.491C42.6188 24.9596 42.8534 25.4109 43.0706 25.8817C43.5894 26.702 44.4911 27.5568 45.2438 28.126C45.6437 28.4288 45.9616 28.9474 46.4629 29.1323V29.0817H46.4301C46.3294 28.9313 46.1794 28.8638 46.0455 28.747C45.7448 28.4452 45.4113 28.0763 45.1763 27.7414C44.4746 26.8034 43.8554 25.7638 43.3052 24.6915C43.037 24.1708 42.8034 23.6015 42.586 23.0824C42.486 22.8822 42.486 22.5797 42.3185 22.4794C42.0671 22.8477 41.7004 23.1665 41.5168 23.6176C41.199 24.339 41.1658 25.227 41.048 26.1491C40.9816 26.1666 41.0151 26.1491 40.9816 26.1824C40.4474 26.0484 40.2635 25.4955 40.0624 25.0278C39.5611 23.8365 39.4768 21.9262 39.9121 20.5519C40.0285 20.2007 40.5313 19.0947 40.3299 18.7596C40.2288 18.4399 39.8949 18.2573 39.7114 18.0048C39.4946 17.6865 39.2593 17.2852 39.1104 16.9325C38.7091 15.9944 38.5073 14.955 38.0741 14.017C37.8735 13.5805 37.5217 13.1279 37.2386 12.7266C36.9204 12.274 36.5697 11.9557 36.3187 11.4201C36.2358 11.2353 36.1187 10.9335 36.2519 10.733C36.2848 10.5987 36.3526 10.5482 36.4865 10.5146C36.7026 10.3302 37.3218 10.5644 37.5385 10.665C38.1573 10.9156 38.6755 11.1515 39.1929 11.5028C39.4272 11.6707 39.6778 11.989 39.9781 12.0735H40.3299C40.8644 12.1899 41.4665 12.1061 41.9682 12.2575C42.8534 12.5422 43.6555 12.9611 44.3746 13.4137C46.5632 14.8046 48.3683 16.7825 49.5878 19.1448C49.7888 19.5297 49.8731 19.882 50.0567 20.2834C50.4077 21.1062 50.8426 21.944 51.1929 22.7476C51.5436 23.5353 51.8785 24.3389 52.3806 24.9935C52.6306 25.3448 53.6336 25.5291 54.085 25.7136C54.4185 25.8639 54.9374 25.9982 55.2384 26.1823C55.8065 26.5336 56.3736 26.9364 56.9092 27.3224C57.176 27.5235 58.0119 27.942 58.0623 28.2776" fill="#00758F"/>
<path fill-rule="evenodd" clip-rule="evenodd" d="M41.0148 13.7137C40.7313 13.7137 40.5313 13.7481 40.3296 13.7979V13.8315H40.3621C40.4971 14.099 40.7313 14.2848 40.897 14.519C41.0316 14.7871 41.1487 15.0542 41.2823 15.3228C41.2987 15.3063 41.3148 15.2887 41.3148 15.2887C41.5505 15.1219 41.6672 14.8541 41.6672 14.4513C41.5662 14.3331 41.5505 14.2168 41.4662 14.099C41.3662 13.9318 41.1488 13.848 41.0148 13.7137Z" fill="#00758F"/>
</g>
<defs>
<clipPath id="clip0_8_33">
<rect width="60" height="60" fill="white"/>
</clipPath>
</defs>
</svg>
