<svg width="60" height="60" viewBox="0 0 60 60" fill="none" xmlns="http://www.w3.org/2000/svg">
<g clip-path="url(#clip0_8_45)">
<path d="M10.6873 0.750441H49.4998C50.8911 0.751306 52.2684 1.02847 53.5517 1.56586C54.835 2.10324 55.9989 2.89014 56.9757 3.88089C57.9525 4.87165 58.7228 6.04653 59.2419 7.33736C59.761 8.62819 60.0186 10.0093 59.9998 11.4004V48.6004C59.9978 50.0016 59.7197 51.3887 59.1815 52.6824C58.6432 53.976 57.8553 55.151 56.8628 56.14C55.8703 57.129 54.6926 57.9128 53.397 58.4465C52.1015 58.9802 50.7134 59.2534 49.3123 59.2504H10.6873C9.28609 59.2534 7.89806 58.9802 6.6025 58.4465C5.30695 57.9128 4.12926 57.129 3.13673 56.14C2.14421 55.151 1.3563 53.976 0.818048 52.6824C0.279794 51.3887 0.00173743 50.0016 -0.000230168 48.6004V11.4004C-0.0139465 9.99488 0.253406 8.60075 0.786116 7.29998C1.31883 5.99921 2.10615 4.81803 3.10182 3.82585C4.0975 2.83367 5.28144 2.05051 6.58407 1.52237C7.88671 0.994234 9.28177 0.731784 10.6873 0.750441Z" fill="#001E36"/>
<path d="M13.4998 41.726V16.0385C13.4998 15.851 13.4998 15.6635 13.6873 15.6635H21.5623C23.2826 15.5784 25.0029 15.8332 26.6248 16.4135C27.8626 16.8093 29.0097 17.4466 29.9998 18.2885C30.8329 19.0692 31.4745 20.0316 31.8748 21.101C32.2428 22.1236 32.433 23.2016 32.4373 24.2885C32.4832 26.1503 31.9599 27.9819 30.9373 29.5385C29.9353 30.8911 28.5698 31.9315 26.9998 32.5385C25.1879 33.1533 23.2881 33.47 21.3748 33.476H18.9373V41.5385C18.9176 41.6806 18.8517 41.8124 18.7498 41.9135H13.8748C13.6873 42.101 13.4998 41.9135 13.4998 41.726ZM18.9373 20.5385V28.976H21.1873C22.1348 28.9434 23.0768 28.8178 23.9998 28.601C24.788 28.3466 25.498 27.8948 26.0623 27.2885C26.6409 26.5426 26.9095 25.6024 26.8123 24.6635C26.804 23.8797 26.6113 23.1089 26.2498 22.4135C25.7795 21.8184 25.2083 21.3107 24.5623 20.9135C23.6093 20.5295 22.5896 20.3383 21.5623 20.351H19.8748C19.5556 20.3739 19.2407 20.4369 18.9373 20.5385Z" fill="#31A8FF"/>
<path d="M47.9998 27.2719C47.2347 26.8477 46.4143 26.5322 45.5623 26.3344C44.6393 26.1176 43.6973 25.992 42.7498 25.9594C42.2425 25.929 41.734 25.9926 41.2498 26.1469C40.8748 26.1469 40.6873 26.3344 40.4998 26.7094C40.3123 26.8969 40.3123 27.0844 40.3123 27.4594C40.2996 27.5612 40.3099 27.6645 40.3424 27.7618C40.3748 27.8592 40.4286 27.948 40.4998 28.0219C40.7737 28.3166 41.0896 28.5693 41.4373 28.7719C41.9622 29.099 42.5302 29.3515 43.1248 29.5219C44.4615 29.9559 45.7255 30.5879 46.8748 31.3969C47.6528 31.9874 48.3467 32.6813 48.9373 33.4594C49.321 34.2805 49.5133 35.1781 49.4998 36.0844C49.4529 37.2668 49.1319 38.4222 48.5623 39.4594C47.8007 40.4061 46.8406 41.1742 45.7498 41.7094C44.316 42.2615 42.7851 42.5166 41.2498 42.4594C40.1164 42.4272 38.9876 42.3018 37.8748 42.0844C36.9771 41.9217 36.0978 41.6705 35.2498 41.3344C35.0623 41.3344 34.8748 40.9594 34.8748 40.7719V36.4594L35.0623 36.2719H35.2498C36.2626 36.8214 37.3312 37.2613 38.4373 37.5844C39.4215 37.8131 40.427 37.9387 41.4373 37.9594C42.1435 37.981 42.8463 37.8532 43.4998 37.5844C43.7183 37.4869 43.9048 37.3295 44.0375 37.1304C44.1703 36.9313 44.2439 36.6986 44.2498 36.4594C44.2534 36.2661 44.2026 36.0757 44.1031 35.9099C44.0036 35.7441 43.8595 35.6096 43.6873 35.5219C42.9498 35.002 42.1238 34.6208 41.2498 34.3969C39.9719 33.9612 38.7699 33.3285 37.6873 32.5219C36.9202 31.9784 36.2804 31.2746 35.8123 30.4594C35.4285 29.6382 35.2362 28.7407 35.2498 27.8344C35.2731 26.766 35.5981 25.7259 36.1873 24.8344C36.7783 23.8055 37.7051 23.0111 38.8123 22.5844C40.2196 21.9281 41.7599 21.6072 43.3123 21.6469C44.3782 21.6158 45.4448 21.6786 46.4998 21.8344C47.2692 21.933 48.0244 22.1218 48.7498 22.3969L48.9373 22.5844V27.0844L48.7498 27.2719H47.9998Z" fill="#31A8FF"/>
</g>
<defs>
<clipPath id="clip0_8_45">
<rect width="60" height="60" fill="white"/>
</clipPath>
</defs>
</svg>
