<svg width="60" height="60" viewBox="0 0 60 60" fill="none" xmlns="http://www.w3.org/2000/svg">
<path d="M0 30.0001C0 38.7157 13.4318 45.7812 29.9999 45.7812C46.5682 45.7812 60 38.7157 60 30.0001C60 21.2846 46.5682 14.219 29.9999 14.219C13.4318 14.2191 0 21.2846 0 30.0001Z" fill="url(#paint0_radial_8_23)"/>
<path d="M29.9999 44.6096C45.921 44.6096 58.828 38.0686 58.828 30C58.828 21.9317 45.921 15.3906 29.9999 15.3906C14.0787 15.3906 1.17188 21.9317 1.17188 30C1.17188 38.0687 14.0788 44.6096 29.9999 44.6096Z" fill="#777BB3"/>
<path d="M16.2991 31.8115C17.6082 31.8115 18.5855 31.5701 19.2038 31.0941C19.8156 30.623 20.2381 29.807 20.4596 28.6687C20.6661 27.6046 20.5875 26.8617 20.2258 26.4609C19.8561 26.0514 19.0569 25.8438 17.8502 25.8438H15.758L14.5982 31.8117H16.2991V31.8115ZM9.45639 39.1627C9.40837 39.1627 9.36093 39.1522 9.31749 39.1317C9.27404 39.1113 9.23566 39.0814 9.20512 39.0444C9.17457 39.0073 9.15261 38.964 9.14082 38.9174C9.12902 38.8709 9.12769 38.8223 9.13691 38.7751L12.2108 22.9602C12.2253 22.886 12.265 22.8192 12.3233 22.7711C12.3817 22.7231 12.4548 22.6968 12.5304 22.6968H19.1551C21.2371 22.6968 22.7869 23.2622 23.7609 24.3773C24.7402 25.4982 25.0426 27.0653 24.6596 29.0345C24.5039 29.8367 24.2358 30.5819 23.8632 31.2491C23.4901 31.9169 22.9968 32.5348 22.3972 33.0861C21.6791 33.7579 20.8667 34.2452 19.9844 34.532C19.1161 34.8147 18.0009 34.9582 16.6698 34.9582H13.9872L13.221 38.8993C13.2066 38.9734 13.1668 39.0403 13.1085 39.0883C13.0503 39.1364 12.9771 39.1627 12.9015 39.1627H9.45639Z" fill="black"/>
<path d="M16.027 26.1689H17.8506C19.3069 26.1689 19.8128 26.4885 19.9848 26.6788C20.2699 26.995 20.3237 27.6618 20.1405 28.6068C19.9346 29.6646 19.5528 30.4148 19.0057 30.836C18.4457 31.2672 17.535 31.4857 16.2994 31.4857H14.9937L16.027 26.1689ZM19.1552 22.3711H12.5303C12.3792 22.3711 12.2329 22.4237 12.1163 22.5198C11.9997 22.6159 11.9202 22.7496 11.8914 22.8979L8.81771 38.713C8.79942 38.8072 8.8022 38.9043 8.82585 38.9974C8.8495 39.0904 8.89342 39.1771 8.95449 39.2511C9.01555 39.3252 9.09224 39.3849 9.17906 39.4258C9.26588 39.4668 9.36068 39.488 9.45668 39.4881H12.9017C13.0528 39.4881 13.1992 39.4355 13.3159 39.3394C13.4325 39.2433 13.512 39.1096 13.5409 38.9613L14.2557 35.2835H16.6699C18.0352 35.2835 19.1844 35.1346 20.0856 34.8411C21.0124 34.5401 21.865 34.0296 22.6197 33.3237C23.2439 32.7496 23.7579 32.105 24.1474 31.4077C24.537 30.7105 24.817 29.9327 24.9794 29.0964C25.3825 27.0235 25.0551 25.3637 24.0061 24.1631C22.9675 22.974 21.3353 22.3711 19.1552 22.3711ZM14.2038 32.1367H16.2994C17.6885 32.1367 18.7229 31.8751 19.4027 31.3518C20.0827 30.8284 20.5412 29.9547 20.7795 28.7307C21.0073 27.5554 20.9035 26.726 20.468 26.2427C20.0317 25.7594 19.1594 25.5178 17.8506 25.5178H15.4902L14.2038 32.1367ZM19.1552 23.0222C21.1481 23.0222 22.6021 23.5452 23.5158 24.5913C24.4296 25.6374 24.7048 27.0976 24.3403 28.9722C24.1902 29.7445 23.9363 30.4506 23.5791 31.0901C23.2213 31.7302 22.7542 32.3155 22.177 32.8463C21.489 33.4901 20.7249 33.9489 19.8839 34.2221C19.043 34.4961 17.9719 34.6324 16.6699 34.6324H13.7189L12.9017 38.837H9.45668L12.5303 23.0223L19.1552 23.0222Z" fill="white"/>
<path d="M32.5589 34.9577C32.5109 34.9577 32.4634 34.9471 32.42 34.9267C32.3765 34.9062 32.3382 34.8763 32.3076 34.8393C32.2771 34.8022 32.2551 34.7589 32.2433 34.7123C32.2315 34.6658 32.2301 34.6172 32.2393 34.5701L33.5991 27.5726C33.7284 26.9072 33.6965 26.4296 33.5092 26.2278C33.3947 26.1043 33.0505 25.8975 32.0329 25.8975H29.5696L27.8601 34.6943C27.8457 34.7685 27.8059 34.8353 27.7476 34.8834C27.6893 34.9314 27.6161 34.9577 27.5405 34.9577H24.1226C24.0746 34.9577 24.0271 34.9471 23.9837 34.9267C23.9403 34.9062 23.9019 34.8763 23.8713 34.8393C23.8408 34.8022 23.8188 34.7589 23.807 34.7123C23.7952 34.6658 23.7938 34.6172 23.803 34.5701L26.8767 18.7551C26.8911 18.6809 26.9309 18.6141 26.9892 18.5661C27.0475 18.518 27.1207 18.4917 27.1963 18.4917H30.6142C30.6622 18.4916 30.7096 18.5022 30.7531 18.5227C30.7966 18.5431 30.835 18.573 30.8655 18.61C30.8961 18.6471 30.918 18.6905 30.9298 18.737C30.9416 18.7836 30.943 18.8322 30.9338 18.8794L30.192 22.6963H32.842C34.8608 22.6963 36.2297 23.0523 37.027 23.7844C37.8397 24.5313 38.0932 25.7257 37.7808 27.3346L36.3506 34.694C36.3362 34.7681 36.2964 34.8349 36.2381 34.883C36.1798 34.9311 36.1066 34.9573 36.0311 34.9574H32.5589V34.9577Z" fill="black"/>
<path d="M30.6141 18.1665H27.1962C27.0451 18.1665 26.8987 18.2191 26.7821 18.3152C26.6655 18.4113 26.586 18.545 26.5572 18.6933L23.4834 34.5084C23.4651 34.6027 23.4678 34.6998 23.4915 34.7929C23.5151 34.8859 23.5591 34.9726 23.6202 35.0467C23.6813 35.1208 23.758 35.1804 23.8449 35.2213C23.9317 35.2623 24.0266 35.2835 24.1226 35.2835H27.5404C27.6915 35.2835 27.8379 35.2309 27.9545 35.1348C28.0712 35.0387 28.1507 34.905 28.1796 34.7567L29.8379 26.2232H32.0329C33.0487 26.2232 33.262 26.4403 33.2705 26.4496C33.3321 26.5158 33.4133 26.8229 33.2795 27.5108L31.9197 34.5083C31.9014 34.6025 31.9041 34.6997 31.9278 34.7927C31.9514 34.8858 31.9954 34.9725 32.0565 35.0466C32.1176 35.1206 32.1943 35.1803 32.2811 35.2212C32.368 35.2622 32.4628 35.2834 32.5589 35.2833H36.0311C36.1822 35.2834 36.3286 35.2308 36.4453 35.1347C36.5619 35.0386 36.6414 34.9049 36.6703 34.7565L38.1002 27.3971C38.4357 25.6696 38.1488 24.3737 37.2472 23.545C36.387 22.755 34.9459 22.371 32.842 22.371H30.5868L31.2532 18.9416C31.2715 18.8473 31.2688 18.7502 31.2452 18.6572C31.2216 18.5642 31.1777 18.4775 31.1167 18.4034C31.0555 18.3293 30.9788 18.2697 30.8919 18.2287C30.805 18.1878 30.7102 18.1665 30.6141 18.1665ZM30.6141 18.8176L29.797 23.0222H32.842C34.758 23.0222 36.0793 23.3565 36.8066 24.0246C37.534 24.6929 37.7518 25.776 37.4612 27.2731L36.0311 34.6324H32.5589L33.9186 27.635C34.0733 26.839 34.0164 26.2961 33.7479 26.0065C33.4791 25.7171 32.9073 25.5722 32.033 25.5722H29.3012L27.5406 34.6324H24.1227L27.1964 18.8176H30.6141Z" fill="white"/>
<path d="M43.1891 31.8111C44.4981 31.8111 45.4755 31.5697 46.0938 31.0937C46.7055 30.6229 47.128 29.8069 47.3497 28.6683C47.5562 27.6043 47.4776 26.8613 47.1158 26.4605C46.7461 26.0511 45.947 25.8434 44.7404 25.8434H42.6483L41.4885 31.8113H43.1891V31.8111ZM36.3462 39.1623C36.2982 39.1623 36.2508 39.1517 36.2073 39.1312C36.1639 39.1108 36.1255 39.0809 36.095 39.0439C36.0644 39.0068 36.0425 38.9635 36.0306 38.9169C36.0188 38.8704 36.0175 38.8218 36.0266 38.7747L39.1004 22.9597C39.1149 22.8855 39.1547 22.8187 39.213 22.7706C39.2713 22.7226 39.3445 22.6963 39.4201 22.6963H46.0448C48.127 22.6963 49.6765 23.2617 50.6507 24.3768C51.6299 25.4976 51.9322 27.0646 51.5494 29.0339C51.3934 29.8362 51.1254 30.5814 50.7528 31.2485C50.3797 31.9164 49.8864 32.5343 49.2868 33.0856C48.5688 33.7575 47.7563 34.2447 46.874 34.5313C46.0057 34.8142 44.8905 34.9577 43.5594 34.9577H40.8768L40.1111 38.8989C40.0966 38.9731 40.0568 39.04 39.9985 39.088C39.9402 39.1361 39.8669 39.1623 39.7914 39.1623H36.3462Z" fill="black"/>
<path d="M42.9165 26.1689H44.7403C46.1965 26.1689 46.7023 26.4885 46.8742 26.6788C47.1596 26.995 47.2133 27.6618 47.03 28.6065C46.8241 29.6646 46.4422 30.4148 45.8954 30.836C45.3352 31.2672 44.4246 31.4857 43.1889 31.4857H41.8833L42.9165 26.1689ZM46.0447 22.3711H39.4201C39.269 22.3711 39.1226 22.4237 39.006 22.5198C38.8895 22.6159 38.8099 22.7496 38.7811 22.8979L35.7074 38.713C35.6891 38.8072 35.6919 38.9043 35.7155 38.9974C35.7391 39.0904 35.7831 39.1771 35.8441 39.2511C35.9052 39.3252 35.9819 39.3849 36.0687 39.4258C36.1555 39.4668 36.2503 39.488 36.3463 39.4881H39.7914C39.9426 39.488 40.0889 39.4355 40.2055 39.3393C40.3221 39.2432 40.4017 39.1096 40.4305 38.9613L41.1452 35.2835H43.5595C44.9247 35.2835 46.0739 35.1346 46.9751 34.8411C47.9019 34.5401 48.7548 34.0293 49.5094 33.3235C50.1336 32.7494 50.6475 32.105 51.0371 31.4077C51.4268 30.7105 51.7068 29.9327 51.8691 29.0964C52.2723 27.0234 51.9448 25.3634 50.8959 24.1629C49.8572 22.974 48.2252 22.3712 46.045 22.3712M41.0937 32.1367H43.1892C44.5781 32.1367 45.6127 31.8751 46.2925 31.3518C46.9725 30.8284 47.4308 29.9547 47.6691 28.7307C47.8972 27.5554 47.7934 26.726 47.3576 26.2427C46.9215 25.7594 46.0492 25.5178 44.7404 25.5178H42.3798L41.0937 32.1367ZM46.045 23.0222C48.0379 23.0222 49.4917 23.5452 50.4056 24.5913C51.3195 25.6374 51.5944 27.0976 51.2299 28.9722C51.0799 29.7445 50.8261 30.4506 50.4687 31.0901C50.1111 31.7302 49.6439 32.3155 49.0666 32.8463C48.3787 33.4901 47.6146 33.9489 46.7737 34.2221C45.9327 34.4961 44.8617 34.6324 43.5596 34.6324H40.6086L39.7916 38.837H36.3466L39.4202 23.0223L46.045 23.0222Z" fill="white"/>
<defs>
<radialGradient id="paint0_radial_8_23" cx="0" cy="0" r="1" gradientUnits="userSpaceOnUse" gradientTransform="translate(18.0224 19.8029) scale(49.2529 49.2529)">
<stop stop-color="#AEB2D5"/>
<stop offset="0.3" stop-color="#AEB2D5"/>
<stop offset="0.75" stop-color="#484C89"/>
<stop offset="1" stop-color="#484C89"/>
</radialGradient>
</defs>
</svg>
