<svg width="60" height="60" viewBox="0 0 60 60" fill="none" xmlns="http://www.w3.org/2000/svg">
<g clip-path="url(#clip0_8_64)">
<path fill-rule="evenodd" clip-rule="evenodd" d="M21.9022 0.147949C21.117 0.148678 20.3396 0.304086 19.6144 0.605297C18.8892 0.906507 18.2304 1.34762 17.6757 1.90345C17.1211 2.45927 16.6813 3.11892 16.3816 3.84472C16.0818 4.57052 15.928 5.34825 15.9289 6.13351C15.9282 6.91866 16.0821 7.69628 16.3819 8.42195C16.6817 9.14762 17.1215 9.80714 17.6761 10.3628C18.2308 10.9186 18.8895 11.3596 19.6146 11.6607C20.3397 11.9618 21.1171 12.1172 21.9022 12.1179H27.8756V6.13351C27.8764 5.34825 27.7226 4.57052 27.4229 3.84472C27.1232 3.11892 26.6834 2.45927 26.1287 1.90345C25.574 1.34762 24.9153 0.906507 24.1901 0.605297C23.4649 0.304086 22.6875 0.148678 21.9022 0.147949ZM21.9022 16.1091H5.97334C5.18818 16.1098 4.41085 16.2652 3.68574 16.5663C2.96062 16.8674 2.30193 17.3085 1.74725 17.8642C1.19258 18.4199 0.752786 19.0794 0.452993 19.8051C0.1532 20.5307 -0.000726185 21.3083 3.71999e-06 22.0935C-0.000872202 22.8788 0.152946 23.6565 0.452674 24.3823C0.752401 25.1081 1.19217 25.7677 1.74686 26.3236C2.30155 26.8794 2.9603 27.3205 3.68548 27.6217C4.41067 27.9229 5.18808 28.0783 5.97334 28.0791H21.9022C22.6875 28.0783 23.4649 27.9229 24.1901 27.6217C24.9153 27.3205 25.574 26.8794 26.1287 26.3236C26.6834 25.7677 27.1232 25.1081 27.4229 24.3823C27.7226 23.6565 27.8764 22.8788 27.8756 22.0935C27.8763 21.3083 27.7224 20.5307 27.4226 19.8051C27.1228 19.0794 26.683 18.4199 26.1283 17.8642C25.5736 17.3085 24.9149 16.8674 24.1898 16.5663C23.4647 16.2652 22.6874 16.1098 21.9022 16.1091Z" fill="#44BEDF"/>
<path fill-rule="evenodd" clip-rule="evenodd" d="M59.7332 22.0935C59.734 21.3083 59.58 20.5307 59.2802 19.8051C58.9804 19.0794 58.5407 18.4199 57.986 17.8642C57.4313 17.3085 56.7726 16.8674 56.0475 16.5663C55.3224 16.2652 54.545 16.1098 53.7599 16.1091C52.9747 16.1098 52.1974 16.2652 51.4723 16.5663C50.7472 16.8674 50.0885 17.3085 49.5338 17.8642C48.9791 18.4199 48.5393 19.0794 48.2395 19.8051C47.9398 20.5307 47.7858 21.3083 47.7866 22.0935V28.0791H53.7599C54.5451 28.0783 55.3226 27.9229 56.0477 27.6217C56.7729 27.3205 57.4317 26.8794 57.9864 26.3236C58.5411 25.7677 58.9808 25.1081 59.2806 24.3823C59.5803 23.6565 59.7341 22.8788 59.7332 22.0935ZM43.8043 22.0935V6.13351C43.8052 5.34825 43.6514 4.57052 43.3517 3.84472C43.0519 3.11892 42.6122 2.45927 42.0575 1.90345C41.5028 1.34762 40.844 0.906507 40.1189 0.605297C39.3937 0.304086 38.6163 0.148678 37.831 0.147949C37.0457 0.148678 36.2683 0.304086 35.5431 0.605297C34.818 0.906507 34.1592 1.34762 33.6045 1.90345C33.0498 2.45927 32.6101 3.11892 32.3103 3.84472C32.0106 4.57052 31.8568 5.34825 31.8577 6.13351V22.0935C31.8568 22.8788 32.0106 23.6565 32.3103 24.3823C32.6101 25.1081 33.0498 25.7677 33.6045 26.3236C34.1592 26.8794 34.818 27.3205 35.5431 27.6217C36.2683 27.9229 37.0457 28.0783 37.831 28.0791C38.6163 28.0783 39.3937 27.9229 40.1189 27.6217C40.844 27.3205 41.5028 26.8794 42.0575 26.3236C42.6122 25.7677 43.0519 25.1081 43.3517 24.3823C43.6514 23.6565 43.8052 22.8788 43.8043 22.0935Z" fill="#2EB67D"/>
<path fill-rule="evenodd" clip-rule="evenodd" d="M37.831 60C38.6163 59.9992 39.3937 59.8438 40.1189 59.5426C40.844 59.2414 41.5028 58.8003 42.0575 58.2445C42.6122 57.6886 43.0519 57.029 43.3517 56.3032C43.6514 55.5774 43.8052 54.7997 43.8043 54.0144C43.8051 53.2292 43.6511 52.4516 43.3513 51.726C43.0516 51.0003 42.6118 50.3408 42.0571 49.7851C41.5024 49.2294 40.8437 48.7883 40.1186 48.4872C39.3935 48.1861 38.6162 48.0307 37.831 48.03H31.8577V54.0144C31.8568 54.7997 32.0106 55.5774 32.3103 56.3032C32.6101 57.029 33.0498 57.6886 33.6045 58.2445C34.1592 58.8003 34.818 59.2414 35.5431 59.5426C36.2683 59.8438 37.0457 59.9992 37.831 60ZM37.831 44.0388H53.7599C54.545 44.0381 55.3224 43.8828 56.0475 43.5816C56.7726 43.2805 57.4313 42.8395 57.986 42.2837C58.5407 41.728 58.9804 41.0685 59.2802 40.3429C59.58 39.6172 59.734 38.8396 59.7332 38.0544C59.7341 37.2692 59.5803 36.4914 59.2806 35.7656C58.9808 35.0398 58.5411 34.3802 57.9864 33.8243C57.4317 33.2685 56.7729 32.8274 56.0477 32.5262C55.3226 32.225 54.5451 32.0696 53.7599 32.0688H37.831C37.0457 32.0696 36.2683 32.225 35.5431 32.5262C34.818 32.8274 34.1592 33.2685 33.6045 33.8243C33.0498 34.3802 32.6101 35.0398 32.3103 35.7656C32.0106 36.4914 31.8568 37.2692 31.8577 38.0544C31.8569 38.8396 32.0109 39.6172 32.3107 40.3429C32.6105 41.0685 33.0502 41.728 33.6049 42.2837C34.1596 42.8395 34.8183 43.2805 35.5434 43.5816C36.2685 43.8828 37.0458 44.0381 37.831 44.0388Z" fill="#ECB22E"/>
<path fill-rule="evenodd" clip-rule="evenodd" d="M5.06276e-06 38.0544C-0.000724842 38.8396 0.153201 39.6172 0.452994 40.3429C0.752787 41.0685 1.19258 41.728 1.74725 42.2837C2.30193 42.8395 2.96063 43.2805 3.68574 43.5816C4.41085 43.8828 5.18818 44.0381 5.97334 44.0388C6.7585 44.0381 7.53582 43.8828 8.26094 43.5816C8.98605 43.2805 9.64475 42.8395 10.1994 42.2837C10.7541 41.728 11.1939 41.0685 11.4937 40.3429C11.7935 39.6172 11.9474 38.8396 11.9467 38.0544V32.0688H5.97334C5.18799 32.0696 4.41048 32.225 3.68523 32.5263C2.95997 32.8276 2.30117 33.2688 1.74647 33.8247C1.19176 34.3807 0.752018 35.0405 0.452356 35.7664C0.152693 36.4923 -0.00101691 37.2691 5.06276e-06 38.0544ZM15.9289 38.0544V54.0144C15.928 54.7997 16.0818 55.5774 16.3816 56.3032C16.6813 57.029 17.1211 57.6886 17.6757 58.2445C18.2304 58.8003 18.8892 59.2414 19.6144 59.5426C20.3396 59.8438 21.117 59.9992 21.9022 60C22.6875 59.9992 23.4649 59.8438 24.1901 59.5426C24.9153 59.2414 25.574 58.8003 26.1287 58.2445C26.6834 57.6886 27.1232 57.029 27.4229 56.3032C27.7226 55.5774 27.8764 54.7997 27.8756 54.0144V38.0555C27.8764 37.2703 27.7226 36.4925 27.4229 35.7667C27.1232 35.0409 26.6834 34.3813 26.1287 33.8255C25.574 33.2696 24.9153 32.8285 24.1901 32.5273C23.4649 32.2261 22.6875 32.0707 21.9022 32.07C21.117 32.0707 20.3396 32.2261 19.6144 32.5273C18.8892 32.8285 18.2304 33.2696 17.6757 33.8255C17.1211 34.3813 16.6813 35.0409 16.3816 35.7667C16.0818 36.4925 15.928 37.2692 15.9289 38.0544Z" fill="#E01E5A"/>
</g>
<defs>
<clipPath id="clip0_8_64">
<rect width="60" height="60" fill="white"/>
</clipPath>
</defs>
</svg>
